<svg xmlns:xlink="http://www.w3.org/1999/xlink" xmlns="http://www.w3.org/2000/svg" width="183px" height="152px" viewBox="0 0 183 152" version="1.1">
  <g id="Group-29">
    <path d="M20.2934 34.9372L0 23.2206L0 0L20.2934 11.7166L20.2934 34.9372Z" transform="translate(142.28174 104.81171)" id="Fill-1" fill="#006A87" stroke="none"/>
    <path d="M20.2934 34.9372L0 23.2206L0 0L20.2934 11.7166L20.2934 34.9372Z" transform="translate(20.293945 11.716736)" id="Fill-2" fill="#006A87" stroke="none"/>
    <path d="M0 23.2209L20.2937 34.9372L20.2937 11.7166L0 0L0 23.2209Z" transform="translate(0 23.433167)" id="Fill-3" fill="#006A87" stroke="none"/>
    <path d="M40.5874 0L20.294 11.7166L0 23.4331L20.294 35.1497L40.5874 23.4331L60.8814 11.7166L40.5874 0Z" id="Fill-4" fill="#FF6C50" stroke="none"/>
    <path d="M20.2934 11.7166L0 23.4328L0 46.6534L20.2934 34.9372L40.5871 23.2203L40.5871 0L20.2934 11.7166Z" transform="translate(20.293945 11.716797)" id="Fill-5" fill="#26DEEB" stroke="none"/>
    <path d="M20.2934 11.7166L0 0L0 23.2203L20.2934 34.9372L40.5871 46.6534L40.5871 23.4328L20.2934 11.7166Z" transform="translate(60.881348 11.716797)" id="Fill-6" fill="#006A87" stroke="none"/>
    <path d="M20.2934 0L0 11.7166L20.2934 23.4331L40.5871 35.1497L60.8808 23.4331L40.5871 11.7166L20.2934 0Z" transform="translate(60.881348 0)" id="Fill-7" fill="#FF6C50" stroke="none"/>
    <path d="M0 34.9369L20.2937 23.2206L20.2937 0L0 11.7163L0 34.9369Z" transform="translate(101.46875 23.433472)" id="Fill-8" fill="#26DEEB" stroke="none"/>
    <path d="M20.2934 34.9369L0 23.2206L0 0L20.2934 11.7163L20.2934 34.9369Z" transform="translate(81.17529 46.654114)" id="Fill-9" fill="#006A87" stroke="none"/>
    <path d="M20.2937 34.9372L0 23.2206L0 0L20.2937 11.7166L20.2937 34.9372Z" transform="translate(101.46875 81.591125)" id="Fill-10" fill="#006A87" stroke="none"/>
    <path d="M20.2937 23.4331L40.5871 11.7166L20.2937 0L0 11.7166L20.2937 23.4331Z" transform="translate(101.46875 69.87451)" id="Fill-11" fill="#FF6C50" stroke="none"/>
    <path d="M0 34.9372L20.2934 23.2206L20.2934 0L0 11.7166L0 34.9372Z" transform="translate(121.76221 81.591125)" id="Fill-12" fill="#26DEEB" stroke="none"/>
    <path d="M0 23.2206L20.2934 34.9369L20.2934 11.7166L0 0L0 23.2206Z" transform="translate(121.76221 116.5282)" id="Fill-13" fill="#006A87" stroke="none"/>
    <path d="M20.2934 23.4332L40.5871 11.7169L20.2934 0L0 11.7169L20.2934 23.4332Z" transform="translate(121.762695 104.811584)" id="Fill-14" fill="#FF6C50" stroke="none"/>
    <path d="M20.2934 23.4332L40.5871 11.7169L20.2934 0L0 11.7169L20.2934 23.4332Z" transform="translate(81.17529 104.811584)" id="Fill-15" fill="#FF6C50" stroke="none"/>
    <path d="M0 11.7163L0 34.9369L20.2937 23.2203L20.2937 0L0 11.7163Z" transform="translate(101.46875 116.52844)" id="Fill-16" fill="#26DEEB" stroke="none"/>
    <path d="M20.2937 34.9372L0 23.2206L0 0L20.2937 11.7166L20.2937 34.9372Z" transform="translate(142.05615 81.591125)" id="Fill-17" fill="#006A87" stroke="none"/>
    <path d="M0 11.7163L20.294 23.4328L40.5874 11.7166L40.5874 11.7159L20.294 0L0 11.7163Z" transform="translate(142.05566 69.87463)" id="Fill-18" fill="#FF6C50" stroke="none"/>
    <path d="M20.294 11.7166L20.294 34.9372L0 46.6541L0 69.8744L0.000318628 69.8744L20.294 58.1578L40.5874 46.4412L40.5874 0L20.294 11.7166Z" transform="translate(142.05566 81.591)" id="Fill-19" fill="#26DEEB" stroke="none"/>
    <path d="M20.2937 34.9372L0 23.2206L0 0L20.2937 11.7166L20.2937 34.9372Z" transform="translate(60.881348 58.370483)" id="Fill-20" fill="#006A87" stroke="none"/>
    <path d="M40.5874 0L20.2937 11.7166L0 23.4331L20.2937 35.1497L40.5874 23.4331L60.8811 11.7166L40.5874 0Z" transform="translate(60.881348 34.937256)" id="Fill-21" fill="#FF6C50" stroke="none"/>
    <path d="M20.2937 11.7163L0 23.4328L0 46.6534L20.2937 34.9369L40.5874 23.2203L40.5874 0L20.2937 11.7163Z" transform="translate(81.174805 46.654114)" id="Fill-22" fill="#26DEEB" stroke="none"/>
    <path d="M0 23.2209L0 46.4416L20.2934 58.1581L40.5868 69.8747L40.5871 69.8747L40.5871 46.6541L20.2934 34.9375L20.2934 11.7169L0 0L0 23.2209Z" transform="translate(60.881348 81.59076)" id="Fill-23" fill="#006A87" stroke="none"/>
    <path d="M20.2937 23.4331L40.5871 11.7166L20.2937 0L0 11.7166L20.2937 23.4331Z" transform="translate(60.881348 69.87451)" id="Fill-24" fill="#FF6C50" stroke="none"/>
    <path d="M0 34.9372L20.2934 23.2206L20.2934 0L0 11.7166L0 34.9372Z" transform="translate(81.174805 81.591125)" id="Fill-25" fill="#26DEEB" stroke="none"/>
    <path d="M0 23.2206L20.2937 34.9369L40.5874 46.6538L40.5874 23.4331L20.2937 11.7166L0 0L0 23.2206Z" transform="translate(0 46.65393)" id="Fill-26" fill="#006A87" stroke="none"/>
    <path d="M0 11.7169L20.2937 23.4331L40.5874 35.1497L60.8814 23.4331L40.5874 11.7169L20.2937 0L0 11.7169Z" transform="translate(0 34.937195)" id="Fill-27" fill="#FF6C50" stroke="none"/>
    <path d="M0 34.9372L20.2937 23.2206L20.2937 0L0 11.7166L0 34.9372Z" transform="translate(40.587402 58.370483)" id="Fill-28" fill="#26DEEB" stroke="none"/>
  </g>
</svg>